<svg width="24" height="18" viewBox="0 0 24 18" fill="none" xmlns="http://www.w3.org/2000/svg">
<path d="M0.560156 0.414328C0.80625 0.28589 1.09219 0.313547 1.36031 0.312141C8.56266 0.312609 15.7645 0.312609 22.9664 0.312141C23.4909 0.284953 23.9709 0.723703 24 1.24636V1.37105C23.9756 1.89558 23.4938 2.33902 22.9678 2.3123C15.6563 2.3123 8.34422 2.3123 1.03266 2.3123C0.51 2.33902 0.0295312 1.90261 0 1.38136V1.2337C0.031875 0.888234 0.245156 0.564797 0.560156 0.414328Z" fill="black"/>
<path d="M0 8.90755C0.0309375 8.38912 0.507656 7.95505 1.0275 7.97849C8.34234 7.97802 15.6572 7.97755 22.9716 7.97849C23.49 7.95458 23.9625 8.38443 24 8.89959V9.0463C23.97 9.54693 23.5247 9.98053 23.0198 9.97678C15.6741 9.97865 8.32781 9.97865 0.982031 9.97724C0.480938 9.98146 0.0365625 9.5549 0 9.05802V8.90755Z" fill="black"/>
<path d="M0 16.5648C0.0375 16.0684 0.481875 15.6413 0.983906 15.6479C8.32687 15.646 15.6703 15.646 23.0133 15.6479C23.5134 15.6399 23.9541 16.0613 24 16.554V16.7218C23.9681 17.0645 23.76 17.3865 23.4487 17.5384C23.1853 17.6785 22.8787 17.6438 22.5919 17.6471C15.5147 17.6471 8.4375 17.6466 1.36078 17.6471C1.10109 17.6452 0.826875 17.6705 0.585469 17.5552C0.261094 17.4118 0.0384375 17.086 0 16.7359V16.5648Z" fill="black"/>
</svg>
