<svg width="516" height="482" viewBox="0 0 516 482" fill="none" xmlns="http://www.w3.org/2000/svg">
<path d="M257.987 66.9678C183.856 -21.168 20 21.0092 20 162.977C20 238.881 71.6682 293.983 121.595 337.381C134.05 348.207 146.763 358.599 158.901 368.52L159.626 369.112C172.077 379.29 183.864 388.939 194.657 398.432C216.663 417.785 232.308 434.639 239.945 450.623C243.267 457.574 250.286 462 257.991 462C265.695 462 272.715 457.574 276.037 450.623C283.674 434.639 299.319 417.786 321.327 398.432C332.121 388.94 343.909 379.291 356.361 369.113L357.09 368.517C369.227 358.597 381.94 348.207 394.395 337.382C444.326 293.984 496 238.882 496 162.977C496 21.1724 332.171 -21.3103 257.987 66.9678Z" stroke="white" stroke-width="40" stroke-linejoin="round"/>
</svg>
