<svg width="556" height="517" viewBox="0 0 556 517" fill="none" xmlns="http://www.w3.org/2000/svg">
<path d="M277.988 73.0963C201.197 -31.6537 15 11.9161 15 169.707C15 252.284 71.1887 312.904 127.912 362.19C141.991 374.423 156.375 386.175 170.207 397.477L170.997 398.122C185.142 409.68 198.66 420.741 211.062 431.643C236.18 453.725 255.039 473.768 264.456 493.469C266.948 498.682 272.212 502 277.99 502C283.767 502 289.031 498.682 291.523 493.469C300.94 473.768 319.8 453.726 344.92 431.644C357.323 420.741 370.842 409.68 384.989 398.122L385.779 397.476C399.612 386.175 413.997 374.423 428.077 362.19C484.805 312.905 541 252.285 541 169.707C541 12.0885 354.845 -31.8097 277.988 73.0963Z" fill="black" stroke="black" stroke-width="30" stroke-linejoin="round"/>
</svg>
