<svg width="432" height="512" viewBox="0 0 432 512" fill="none" xmlns="http://www.w3.org/2000/svg">
<path d="M432 452C432 463.046 423.046 472 412 472H392V492C392 503.046 383.046 512 372 512C360.954 512 352 503.046 352 492V472H332C320.954 472 312 463.046 312 452C312 440.954 320.954 432 332 432H352V412C352 400.954 360.954 392 372 392C383.046 392 392 400.954 392 412V432H412C423.046 432 432 440.954 432 452ZM432 140V332C432 343.046 423.046 352 412 352C400.954 352 392 343.046 392 332V160H352V220C352 231.046 343.046 240 332 240C320.954 240 312 231.046 312 220V160H120V220C120 231.046 111.046 240 100 240C88.954 240 80 231.046 80 220V160H40V472H252C263.046 472 272 480.954 272 492C272 503.046 263.046 512 252 512H20C8.954 512 0 503.046 0 492V140C0 128.954 8.954 120 20 120H80.946C88.891 52.523 146.423 0 216 0C285.577 0 343.109 52.523 351.054 120H412C423.046 120 432 128.954 432 140ZM310.659 120C303.019 74.655 263.483 40 216 40C168.517 40 128.981 74.655 121.341 120H310.659Z" fill="white"/>
</svg>
